<mxfile host="Electron" agent="Mozilla/5.0 (Macintosh; Intel Mac OS X 10_15_7) AppleWebKit/537.36 (KHTML, like Gecko) draw.io/25.0.2 Chrome/128.0.6613.186 Electron/32.2.5 Safari/537.36" version="25.0.2">
  <diagram name="Page-1" id="Cipnv7ns0PL8QbjTy8O6">
    <mxGraphModel dx="1242" dy="812" grid="1" gridSize="10" guides="1" tooltips="1" connect="1" arrows="1" fold="1" page="1" pageScale="1" pageWidth="850" pageHeight="1100" math="0" shadow="0">
      <root>
        <mxCell id="0" />
        <mxCell id="1" parent="0" />
        <mxCell id="2pEzzYKXkyDHGcM-QH3H-14" style="edgeStyle=orthogonalEdgeStyle;rounded=0;orthogonalLoop=1;jettySize=auto;html=1;" edge="1" parent="1" source="2pEzzYKXkyDHGcM-QH3H-1" target="2pEzzYKXkyDHGcM-QH3H-2">
          <mxGeometry relative="1" as="geometry" />
        </mxCell>
        <mxCell id="2pEzzYKXkyDHGcM-QH3H-1" value="&lt;h2&gt;Load Audio&lt;/h2&gt;" style="rounded=1;whiteSpace=wrap;html=1;verticalAlign=middle;" vertex="1" parent="1">
          <mxGeometry x="30" y="30" width="180" height="80" as="geometry" />
        </mxCell>
        <mxCell id="2pEzzYKXkyDHGcM-QH3H-15" style="edgeStyle=orthogonalEdgeStyle;rounded=0;orthogonalLoop=1;jettySize=auto;html=1;entryX=0;entryY=0.5;entryDx=0;entryDy=0;" edge="1" parent="1" source="2pEzzYKXkyDHGcM-QH3H-2" target="2pEzzYKXkyDHGcM-QH3H-3">
          <mxGeometry relative="1" as="geometry" />
        </mxCell>
        <mxCell id="2pEzzYKXkyDHGcM-QH3H-2" value="&lt;h2&gt;Percussive&lt;br&gt;Enhancement&lt;/h2&gt;" style="rounded=1;whiteSpace=wrap;html=1;verticalAlign=middle;" vertex="1" parent="1">
          <mxGeometry x="305" y="30" width="180" height="80" as="geometry" />
        </mxCell>
        <mxCell id="2pEzzYKXkyDHGcM-QH3H-16" style="edgeStyle=orthogonalEdgeStyle;rounded=0;orthogonalLoop=1;jettySize=auto;html=1;entryX=0.5;entryY=0;entryDx=0;entryDy=0;" edge="1" parent="1" source="2pEzzYKXkyDHGcM-QH3H-3" target="2pEzzYKXkyDHGcM-QH3H-4">
          <mxGeometry relative="1" as="geometry" />
        </mxCell>
        <mxCell id="2pEzzYKXkyDHGcM-QH3H-3" value="&lt;h2&gt;Envelope +&amp;nbsp;Rectify&lt;/h2&gt;" style="rounded=1;whiteSpace=wrap;html=1;verticalAlign=middle;" vertex="1" parent="1">
          <mxGeometry x="580" y="30" width="180" height="80" as="geometry" />
        </mxCell>
        <mxCell id="2pEzzYKXkyDHGcM-QH3H-17" style="edgeStyle=orthogonalEdgeStyle;rounded=0;orthogonalLoop=1;jettySize=auto;html=1;entryX=1;entryY=0.5;entryDx=0;entryDy=0;" edge="1" parent="1" source="2pEzzYKXkyDHGcM-QH3H-4" target="2pEzzYKXkyDHGcM-QH3H-5">
          <mxGeometry relative="1" as="geometry" />
        </mxCell>
        <mxCell id="2pEzzYKXkyDHGcM-QH3H-4" value="&lt;h2&gt;Downsample&lt;/h2&gt;&lt;div&gt;downsample_factor = 3&lt;/div&gt;" style="rounded=1;whiteSpace=wrap;html=1;verticalAlign=middle;" vertex="1" parent="1">
          <mxGeometry x="580" y="200" width="180" height="80" as="geometry" />
        </mxCell>
        <mxCell id="2pEzzYKXkyDHGcM-QH3H-18" style="edgeStyle=orthogonalEdgeStyle;rounded=0;orthogonalLoop=1;jettySize=auto;html=1;entryX=1;entryY=0.5;entryDx=0;entryDy=0;" edge="1" parent="1" source="2pEzzYKXkyDHGcM-QH3H-5" target="2pEzzYKXkyDHGcM-QH3H-6">
          <mxGeometry relative="1" as="geometry" />
        </mxCell>
        <mxCell id="2pEzzYKXkyDHGcM-QH3H-5" value="&lt;h2&gt;Median Filter&lt;/h2&gt;&lt;p&gt;median_filter_window_size = 15&lt;/p&gt;" style="rounded=1;whiteSpace=wrap;html=1;verticalAlign=middle;" vertex="1" parent="1">
          <mxGeometry x="305" y="200" width="180" height="80" as="geometry" />
        </mxCell>
        <mxCell id="2pEzzYKXkyDHGcM-QH3H-19" style="edgeStyle=orthogonalEdgeStyle;rounded=0;orthogonalLoop=1;jettySize=auto;html=1;entryX=0.5;entryY=0;entryDx=0;entryDy=0;" edge="1" parent="1" source="2pEzzYKXkyDHGcM-QH3H-6" target="2pEzzYKXkyDHGcM-QH3H-7">
          <mxGeometry relative="1" as="geometry" />
        </mxCell>
        <mxCell id="2pEzzYKXkyDHGcM-QH3H-6" value="&lt;h2&gt;Percentile Mask&lt;/h2&gt;&lt;div&gt;percentile_lower = 97&lt;/div&gt;&lt;div&gt;percentile_upper = 99&lt;/div&gt;" style="rounded=1;whiteSpace=wrap;html=1;verticalAlign=middle;" vertex="1" parent="1">
          <mxGeometry x="30" y="190" width="180" height="100" as="geometry" />
        </mxCell>
        <mxCell id="2pEzzYKXkyDHGcM-QH3H-20" style="edgeStyle=orthogonalEdgeStyle;rounded=0;orthogonalLoop=1;jettySize=auto;html=1;entryX=0;entryY=0.5;entryDx=0;entryDy=0;" edge="1" parent="1" source="2pEzzYKXkyDHGcM-QH3H-7" target="2pEzzYKXkyDHGcM-QH3H-8">
          <mxGeometry relative="1" as="geometry" />
        </mxCell>
        <mxCell id="2pEzzYKXkyDHGcM-QH3H-7" value="&lt;h2&gt;Peak Detection&lt;/h2&gt;&lt;div&gt;max_bpm = 120&lt;/div&gt;&lt;div&gt;prominence = 0.01&lt;/div&gt;" style="rounded=1;whiteSpace=wrap;html=1;verticalAlign=middle;horizontal=1;" vertex="1" parent="1">
          <mxGeometry x="15" y="370" width="210" height="140" as="geometry" />
        </mxCell>
        <mxCell id="2pEzzYKXkyDHGcM-QH3H-21" style="edgeStyle=orthogonalEdgeStyle;rounded=0;orthogonalLoop=1;jettySize=auto;html=1;entryX=0;entryY=0.5;entryDx=0;entryDy=0;" edge="1" parent="1" source="2pEzzYKXkyDHGcM-QH3H-8" target="2pEzzYKXkyDHGcM-QH3H-9">
          <mxGeometry relative="1" as="geometry" />
        </mxCell>
        <mxCell id="2pEzzYKXkyDHGcM-QH3H-8" value="&lt;h2&gt;Weigh Peaks&lt;/h2&gt;&lt;div&gt;horizontal_gap_weight = 1.75&lt;/div&gt;&lt;div&gt;vertical_gap_weight = 0.5&lt;/div&gt;&lt;div&gt;horizontal_center_dist_weight = 1.0&lt;/div&gt;&lt;div&gt;vertical_center_dist_weight = 0.5&lt;/div&gt;" style="rounded=1;whiteSpace=wrap;html=1;" vertex="1" parent="1">
          <mxGeometry x="285" y="370" width="220" height="140" as="geometry" />
        </mxCell>
        <mxCell id="2pEzzYKXkyDHGcM-QH3H-22" style="edgeStyle=orthogonalEdgeStyle;rounded=0;orthogonalLoop=1;jettySize=auto;html=1;entryX=0.5;entryY=0;entryDx=0;entryDy=0;" edge="1" parent="1" source="2pEzzYKXkyDHGcM-QH3H-9" target="2pEzzYKXkyDHGcM-QH3H-10">
          <mxGeometry relative="1" as="geometry" />
        </mxCell>
        <mxCell id="2pEzzYKXkyDHGcM-QH3H-9" value="&lt;h2&gt;Convolve weighted peaks&lt;/h2&gt;&lt;div&gt;convolution_window_length_seconds = 8&lt;/div&gt;" style="rounded=1;whiteSpace=wrap;html=1;verticalAlign=top;" vertex="1" parent="1">
          <mxGeometry x="545" y="395" width="250" height="90" as="geometry" />
        </mxCell>
        <mxCell id="2pEzzYKXkyDHGcM-QH3H-24" style="edgeStyle=orthogonalEdgeStyle;rounded=0;orthogonalLoop=1;jettySize=auto;html=1;entryX=1;entryY=0.5;entryDx=0;entryDy=0;" edge="1" parent="1" source="2pEzzYKXkyDHGcM-QH3H-10" target="2pEzzYKXkyDHGcM-QH3H-23">
          <mxGeometry relative="1" as="geometry" />
        </mxCell>
        <mxCell id="2pEzzYKXkyDHGcM-QH3H-10" value="&lt;h2&gt;Crossing Threshold&lt;/h2&gt;&lt;div&gt;crossing_threshold = 0.3&lt;/div&gt;" style="rounded=1;whiteSpace=wrap;html=1;" vertex="1" parent="1">
          <mxGeometry x="552.5" y="550" width="235" height="90" as="geometry" />
        </mxCell>
        <mxCell id="2pEzzYKXkyDHGcM-QH3H-23" value="&lt;h2&gt;Interpolate pressure&lt;br&gt;+&lt;br&gt;Output to file&lt;/h2&gt;" style="rounded=1;whiteSpace=wrap;html=1;" vertex="1" parent="1">
          <mxGeometry x="270" y="550" width="250" height="90" as="geometry" />
        </mxCell>
      </root>
    </mxGraphModel>
  </diagram>
</mxfile>
